<svg width="195" height="195" viewBox="0 0 195 195" fill="none" xmlns="http://www.w3.org/2000/svg">
<path fill-rule="evenodd" clip-rule="evenodd" d="M74.3511 2.76534C71.827 3.37985 69.3415 4.09251 66.899 4.89903L190.101 128.101C190.908 125.658 191.621 123.173 192.236 120.65L74.3511 2.76534ZM192.507 119.507C193.054 117.136 193.514 114.732 193.885 112.299L82.7025 1.11672C80.2688 1.48724 77.8649 1.94762 75.4944 2.49436L192.507 119.507ZM0.00134736 98.0013C-0.0131638 95.2125 0.0896347 92.4503 0.305119 89.7193L105.279 194.693C102.967 194.876 100.633 194.978 98.2781 194.997C97.8511 195 97.4246 195.001 96.9988 194.999L0.00134736 98.0013ZM0.0190933 99.4333L95.5673 194.981C92.0765 194.914 88.63 194.663 85.2371 194.237L0.765088 109.765C0.339284 106.373 0.0875214 102.926 0.0190933 99.4333ZM70.9187 191.333C65.59 189.826 60.4455 187.877 55.5277 185.528L9.46998 139.47C7.1228 134.555 5.17479 129.412 3.66824 124.082L70.9187 191.333ZM72.8602 191.86L3.14125 122.141C2.22808 118.634 1.50512 115.049 0.984113 111.398L83.604 194.018C79.9542 193.497 76.369 192.774 72.8602 191.86ZM52.712 184.126L10.8708 142.285C20.1497 160.198 34.8178 174.855 52.712 184.126ZM1.56849 79.9827C1.0654 82.7553 0.679692 85.5684 0.416661 88.4166L106.582 194.582C109.431 194.318 112.244 193.933 115.016 193.43L1.56849 79.9827ZM1.7922 78.7922C2.30165 76.1712 2.9162 73.5875 3.63131 71.0455L123.954 191.368C121.412 192.083 118.828 192.697 116.206 193.206L1.7922 78.7922ZM6.36413 62.7783C5.46899 65.1261 4.66204 67.5171 3.94728 69.9473L125.052 191.052C127.483 190.338 129.874 189.531 132.222 188.636L6.36413 62.7783ZM6.75927 61.7593C7.5597 59.729 8.42635 57.732 9.35657 55.7708L139.23 185.644C137.269 186.574 135.272 187.441 133.241 188.241L6.75927 61.7593ZM13.1515 48.5657C11.9667 50.6036 10.8537 52.6881 9.81589 54.8159L140.185 185.185C142.313 184.147 144.398 183.034 146.435 181.85L13.1515 48.5657ZM13.6755 47.6755C14.8604 45.6862 16.1142 43.7426 17.4336 41.8478L153.153 177.567C151.259 178.887 149.315 180.14 147.326 181.326L13.6755 47.6755ZM22.1754 35.5896C20.728 37.3486 19.3412 39.1591 18.0179 41.0179L153.983 176.983C155.842 175.66 157.652 174.273 159.411 172.825L22.1754 35.5896ZM22.8174 34.8174C24.1218 33.2648 25.4738 31.7533 26.8711 30.2853L164.715 168.129C163.247 169.526 161.736 170.878 160.183 172.183L22.8174 34.8174ZM32.4536 24.8678C30.77 26.3768 29.1392 27.9433 27.5644 29.5644L165.436 167.436C167.057 165.861 168.623 164.23 170.132 162.546L32.4536 24.8678ZM33.203 24.203C34.9086 22.7055 36.667 21.2666 38.4751 19.8893L175.11 156.524C173.733 158.332 172.294 160.091 170.797 161.797L33.203 24.203ZM44.9465 15.3607C43.0102 16.6022 41.1208 17.9102 39.2815 19.2815L175.718 155.718C177.089 153.878 178.397 151.989 179.638 150.052L44.9465 15.3607ZM45.8121 14.8121C47.5832 13.7027 49.3926 12.6485 51.2379 11.6521L183.347 143.761C182.35 145.606 181.296 147.415 180.187 149.187L45.8121 14.8121ZM58.6381 8.0523C56.4352 9.01058 54.2748 10.0478 52.1604 11.1604L183.839 142.839C184.951 140.724 185.989 138.564 186.947 136.361L58.6381 8.0523ZM59.6282 7.62815C61.6646 6.76908 63.7364 5.97717 65.841 5.25519L189.745 129.159C189.023 131.263 188.231 133.335 187.371 135.371L59.6282 7.62815ZM92.7024 0.116632C89.7436 0.260294 86.8199 0.535627 83.9369 0.936868L194.065 111.065C194.466 108.181 194.741 105.257 194.885 102.299L92.7024 0.116632ZM194.941 100.941C194.989 99.5417 195.008 98.1352 194.997 96.7218C194.982 94.873 194.916 93.0366 194.8 91.214L103.784 0.198561C101.451 0.0503023 99.0961 -0.0157797 96.7218 0.00317174C95.8316 0.0102785 94.9443 0.029291 94.0601 0.0600603L194.941 100.941ZM116.419 1.83357C112.783 1.11838 109.075 0.605554 105.307 0.307226L194.691 89.6909C194.392 85.9217 193.879 82.2136 193.164 78.5785L116.419 1.83357ZM192.796 76.7965C191.909 72.6924 190.764 68.6852 189.378 64.7926L130.207 5.62164C126.313 4.23488 122.305 3.08891 118.201 2.20149L192.796 76.7965ZM152.721 17.135C146.454 12.8205 139.658 9.22083 132.453 6.45249L188.548 62.548C185.78 55.3407 182.181 48.5475 177.87 42.2846L152.721 17.135ZM158.178 21.1779C163.966 25.7854 169.219 31.0382 173.828 36.8284L158.178 21.1779Z" fill="url(#paint0_linear_22_110)" fill-opacity="0.7"/>
<defs>
<linearGradient id="paint0_linear_22_110" x1="194.997" y1="96.7218" x2="0.00317568" y2="98.2781" gradientUnits="userSpaceOnUse">
<stop stop-color="#390082"/>
<stop offset="0.304" stop-color="#0E38A3"/>
<stop offset="0.624" stop-color="#FF0099"/>
<stop offset="1" stop-color="#CCFF00"/>
</linearGradient>
</defs>
</svg>
